<svg
    xmlns="http://www.w3.org/2000/svg" width="600" height="600" shape-rendering="geometricPrecision" text-rendering="geometricPrecision" image-rendering="optimizeQuality" fill-rule="evenodd" clip-rule="evenodd">
    <path d="M521.16 404.22c-27.34 0-53.03-10.74-72.36-30.07l-11.61-11.62-12.53-37.58-64.83-60.03 94.09-94.09 10.51 10.52 102.55-73.24 32.44-64.88L556.7.51l-64.88 32.43-73.25 102.55 10.52 10.52-95.04 95.04L73.79.07.25 73.62l193.23 208.69-68.17 68.17 24.83 24.83L0 525.44l74.48 74.49 150.14-150.14 24.82 24.83 63.4-63.4 12.29 13.27 37.57 12.53 11.62 11.61c19.32 19.32 29.71 45.02 29.71 72.35v12.59L600 599.83l-66.25-195.61h-12.59zm-5.84-343.77l34.44-17.22 6.94 6.93-17.22 34.44-71.25 50.89-3.8-3.8 50.89-71.24zM74.48 550.27l-24.83-24.83 125.31-125.3 24.83 24.82L74.48 550.27zm174.96-125.31l-74.48-74.48 42.39-42.39 71.62 77.35-39.53 39.52zM48.96 74.56l25.76-25.77L394.2 344.6l7.56 22.68-34.31 34.31-22.68-7.56L48.96 74.56zM399.15 423.8l-2.13-2.13 24.82-24.83c1.73 1.24 31.43 36.76 86.53 41.81l22.88 67.6-34.92-34.92-24.83 24.83 34.93 34.92-67.61-22.88c-2.93-31.89-16.75-61.48-39.67-84.4z" fill="#A8518A" fill-rule="nonzero"/>
</svg>