<svg
    xmlns="http://www.w3.org/2000/svg" width="600" height="600" shape-rendering="geometricPrecision" text-rendering="geometricPrecision" image-rendering="optimizeQuality" fill-rule="evenodd" clip-rule="evenodd">
    <defs>
        <style>.fil0{fill:#A8518A;fill-rule:nonzero}</style>
    </defs>
    <g id="Camada_x0020_1">
        <g id="_2512149157328">
            <path class="fil0" d="M563.67 175.78H458.2v389.07h-35.15v-283.6H317.58v283.6h-35.16V351.56H176.95v213.29H141.8v-283.6H36.33v283.6H0V600h600v-35.15h-36.33V175.78zm-70.31 35.16h35.16v353.91h-35.16V210.94zM352.73 316.41h35.16v248.44h-35.16V316.41zm-140.62 70.31h35.15v178.13h-35.15V386.72zM71.48 316.41h35.16v248.44H71.48V316.41z"/>
            <path class="fil0" d="M89.06 105.47c-29.08 0-52.73 23.66-52.73 52.73 0 29.08 23.65 52.74 52.73 52.74 14.19 0 27.08-5.65 36.57-14.8l51.74 25.87c-.27 2.13-.42 4.3-.42 6.5 0 29.08 23.66 52.74 52.74 52.74 29.07 0 52.73-23.66 52.73-52.74 0-2.2-.15-4.37-.41-6.5l51.73-25.87c9.49 9.15 22.38 14.8 36.57 14.8 29.08 0 52.74-23.66 52.74-52.74 0-5.49-.85-10.79-2.42-15.77l61.1-45.82a52.416 52.416 0 0 0 29.21 8.86c29.08 0 52.73-23.66 52.73-52.74C563.67 23.66 540.02 0 510.94 0S458.2 23.66 458.2 52.73c0 5.5.85 10.79 2.42 15.77l-61.1 45.82a52.408 52.408 0 0 0-29.21-8.85c-29.07 0-52.73 23.66-52.73 52.73 0 2.21.15 4.37.41 6.51l-51.73 25.87c-9.49-9.16-22.38-14.8-36.57-14.8-14.19 0-27.08 5.64-36.57 14.8l-51.74-25.87c.26-2.14.42-4.3.42-6.51 0-29.07-23.66-52.73-52.74-52.73zm0 70.31c-9.69 0-17.58-7.89-17.58-17.58 0-9.69 7.89-17.58 17.58-17.58 9.69 0 17.58 7.89 17.58 17.58 0 9.69-7.89 17.58-17.58 17.58zM510.94 35.15c9.69 0 17.58 7.89 17.58 17.58 0 9.7-7.89 17.58-17.58 17.58-9.69 0-17.58-7.88-17.58-17.58 0-9.69 7.89-17.58 17.58-17.58zM370.31 140.62c9.69 0 17.58 7.89 17.58 17.58 0 9.69-7.89 17.58-17.58 17.58-9.69 0-17.58-7.89-17.58-17.58 0-9.69 7.89-17.58 17.58-17.58zm-140.62 70.32c9.69 0 17.57 7.88 17.57 17.57 0 9.7-7.88 17.58-17.57 17.58-9.69 0-17.58-7.88-17.58-17.58 0-9.69 7.89-17.57 17.58-17.57z"/>
        </g>
    </g>
</svg>